<?xml version="1.0" standalone="no"?>
<svg xmlns:xlink="http://www.w3.org/1999/xlink" xmlns="http://www.w3.org/2000/svg" width="216mm" height="111mm" viewBox="0 0 216 111"><g id="svgGroup" stroke="#000" stroke-width="0.25mm" stroke-linecap="round" fill="none" fill-rule="evenodd" font-size="9pt"><path d="M 1 1 m -1 0 a 1 1 0 0 1 2 0 a 1 1 0 0 1 -2 0 z M 8.1785165 13.1785165 m -4.1785165 0 a 4.1785165 4.1785165 0 0 1 8.357033 0 a 4.1785165 4.1785165 0 0 1 -8.357033 0 z M 98.8214835 13.1785165 m -4.1785165 0 a 4.1785165 4.1785165 0 0 1 8.357033 0 a 4.1785165 4.1785165 0 0 1 -8.357033 0 z M 114 53 L 114 40.3392582 L 111 40.3392582 L 111 27.3392582 L 114 27.3392582 L 114 14.6785165 L 158 14.6785165 L 158 27.3392582 L 161 27.3392582 L 161 40.3392582 L 158 40.3392582 L 158 53 L 114 53 Z M 128.5 45.8214835 L 143.5 45.8214835 L 143.5 43.1214835 L 128.5 43.1214835 L 128.5 45.8214835 Z M 169 53 L 169 40.3392582 L 166 40.3392582 L 166 27.3392582 L 169 27.3392582 L 169 14.6785165 L 183.5 14.6785165 L 183.5 11.6785165 L 198.5 11.6785165 L 198.5 14.6785165 L 213 14.6785165 L 213 27.3392582 L 216 27.3392582 L 216 40.3392582 L 213 40.3392582 L 213 53 L 169 53 Z M 183.5 45.8214835 L 198.5 45.8214835 L 198.5 43.1214835 L 183.5 43.1214835 L 183.5 45.8214835 Z M 15.357033 108 L 15.357033 93.5 L 9.6785165 93.5 L 9.6785165 78.5 L 15.357033 78.5 L 15.357033 64 L 23.0892582 64 L 23.0892582 61 L 30.0892582 61 L 30.0892582 64 L 37.8214835 64 L 37.8214835 78.5 L 40.8214835 78.5 L 40.8214835 93.5 L 37.8214835 93.5 L 37.8214835 108 L 30.0892582 108 L 30.0892582 111 L 23.0892582 111 L 23.0892582 108 L 15.357033 108 Z M 59 108 L 59 64 L 59.2785165 64 L 59.2785165 61 L 67.0785165 61 L 67.0785165 64 L 103 64 L 103 108 L 67.0785165 108 L 67.0785165 111 L 59.2785165 111 L 59.2785165 108 L 59 108 Z M 92.8214835 93.5 L 95.6714835 93.5 L 95.6714835 78.5 L 92.8214835 78.5 L 92.8214835 93.5 Z M 4 56 L 4 47.3214835 L 1 47.3214835 L 1 6 L 51 6 L 51 47.3214835 L 48 47.3214835 L 48 56 L 4 56 Z M 12.357033 40.3392582 L 15.057033 40.3392582 L 15.057033 27.3392582 L 12.357033 27.3392582 L 12.357033 40.3392582 Z M 37.8214835 40.3392582 L 40.5214835 40.3392582 L 40.5214835 27.3392582 L 37.8214835 27.3392582 L 37.8214835 40.3392582 Z M 23.0892582 45.8214835 L 30.0892582 45.8214835 L 30.0892582 43.1214835 L 23.0892582 43.1214835 L 23.0892582 45.8214835 Z M 103 56 L 103 47.3214835 L 106 47.3214835 L 106 6 L 56 6 L 56 47.3214835 L 59 47.3214835 L 59 56 L 103 56 Z M 94.642967 40.3392582 L 91.942967 40.3392582 L 91.942967 27.3392582 L 94.642967 27.3392582 L 94.642967 40.3392582 Z M 69.1785165 40.3392582 L 66.4785165 40.3392582 L 66.4785165 27.3392582 L 69.1785165 27.3392582 L 69.1785165 40.3392582 Z M 83.9107418 45.8214835 L 76.9107418 45.8214835 L 76.9107418 43.1214835 L 83.9107418 43.1214835 L 83.9107418 45.8214835 Z" vector-effect="non-scaling-stroke"/></g></svg>